<?xml version="1.0" encoding="utf-8"?>
<!-- Generator: Adobe Illustrator 27.5.0, SVG Export Plug-In . SVG Version: 6.00 Build 0)  -->
<svg version="1.1" xmlns="http://www.w3.org/2000/svg" xmlns:xlink="http://www.w3.org/1999/xlink" x="0px" y="0px"
	 viewBox="0 0 750 500" style="enable-background:new 0 0 750 500;" xml:space="preserve">
<g id="BACKGROUND">
	<rect style="fill:#1cd35c1a;" width="750" height="500"/>
</g>
<g id="OBJECTS">
	<g>
		<path style="fill:#FFF9F5;" d="M299.48,47.049c-64.24,7.93-127.58,38.2-164.73,90.34c-37.15,52.14-42.98,127.27-5.3,179.04
			c28.01,38.5,74.67,59.6,121.08,72.2c93.38,25.35,194.48,22.47,286.21-8.17c28.57-9.54,56.61-21.93,79.87-40.83
			s41.5-44.94,46.37-74.22c3.37-20.29-0.36-42.64-14.3-57.96c-13.19-14.5-33.14-20.68-50.01-30.83
			c-40.14-24.16-85-80.98-126.13-103.19C405.79,37.379,327.72,43.559,299.48,47.049z"/>
		<g>
			<polygon style="fill:#CCCFD4;" points="72,417.419 520.72,415.409 696,452.849 169.32,455.679 			"/>
			<g>
				<g>
					<g>
						<g>
							<g>
								<rect x="620.92" y="354.309" style="fill:#192C52;" width="8.05" height="81.49"/>
								<rect x="573.64" y="348.969" style="fill:#0C1A3B;" width="8.05" height="81.49"/>
								<rect x="560.92" y="355.799" style="fill:#192C52;" width="8.05" height="81.49"/>
							</g>
							<g>
								<polyline style="fill:#0C1A3B;" points="642.72,311.389 633.94,353.059 625.95,352.309 634.58,311.829 								"/>
								<g>
									<polygon style="fill:#1F3A59;" points="643.64,266.979 655.33,258.389 661.39,260.779 648.01,322.209 639.13,321.919 
																			"/>
									<polygon style="fill:#CCCFD4;" points="609.49,254.029 655.63,258.329 641.16,323.479 594.11,314.429 									"/>
								</g>
							</g>
							<g>
								<polygon style="fill:#1F3A59;" points="623.58,346.989 637.16,348.409 637.16,355.029 542.15,362.019 542.36,349.249 
																	"/>
								<polygon style="fill:#CCCFD4;" points="589.91,335.909 637.16,348.389 536.11,354.339 								"/>
							</g>
						</g>
						<g>
							<path style="fill:#070F36;" d="M563.54,172.779c-1.13-6.75,2.93-14.03,9.28-16.6c6.35-2.57,14.33-0.19,18.22,5.45
								c3.89,5.64,3.29,13.95-1.36,18.97c-3.57,3.85-3.02,10.74,1.11,13.97c5.36,4.21,7.73,11.86,5.68,18.36
								c-2.05,6.5-8.39,11.41-15.2,11.77c-2.56,0.14-4.33-2.77-4.34-5.34c-0.01-2.57,1.07-5.02,1.34-7.57
								c0.26-2.55-0.72-5.63-3.19-6.32c-5.76-1.6-10.59-6.22-12.45-11.91C560.77,187.869,564.97,181.339,563.54,172.779z"/>
							<g>
								<g>
									<g>
										<g>
											<path style="fill:#E57772;" d="M529.07,435.089c-5.51,2.7-35.81,5.44-42.57,1.91c-0.53-0.29-0.92-0.61-1.13-0.98
												c-1.3-2.19,3.72-6.89,9.55-11.33c6.87-5.24,14.87-10.13,14.87-10.13l16.45-1.15c0,0,0.83,2.77,1.71,6.32
												c0.39,1.59,0.79,3.32,1.13,5.04C530.05,429.619,530.55,434.359,529.07,435.089z"/>
											<path style="fill:#0C1B3C;" d="M529.07,435.089c-5.51,2.7-35.81,5.44-42.57,1.91c-0.53-0.29-0.92-0.61-1.13-0.98
												c-1.3-2.19,3.72-6.89,9.55-11.33c8.95,1.85,26.45-0.96,33.03-4.96c0.39,1.59,0.79,3.32,1.13,5.04
												C530.05,429.619,530.55,434.359,529.07,435.089z"/>
										</g>
										<path style="fill:#E57772;" d="M501.98,333.019c-0.54,16.49,5.12,40.18,8.11,82.58c1.72,0.06,16.22,0,16.22,0
											s6.18-48.04,1.49-63.92c-1.68-5.67,14.54-3.61,28.01-11.19c3.51-1.99,7.33-3.58,11.48-4.71
											c4.13-1.11,8.96-2.01,11.05-5.11c4.37-6.46-7.65-13.96-12.26-26.94c-3.99,1.01-7.63,1.97-11.03,2.9
											C539.6,310.839,502.4,320.089,501.98,333.019z"/>
									</g>
									<g>
										<path style="fill:#FDAD91;" d="M542.82,417.229c6.46,0.51,8.33,2.49,16.14-0.2c0-60.07-6.36-65.08-4.48-65.33
											c19.72-2.66,41.27-0.18,57.4-11.32c21.62-16.72,12.14-42.21,1.97-62.85c-17.11,1.3-34.24,2.59-51.35,3.89
											c-5.42,8.44-7.8,17.04-7.45,25.23c0.19,4.6,1.23,9.06,3.07,13.31c-3.93,2.37-8.27,3.65-12.63,4.61
											c-9.68,2.13-20.67,3.31-22.22,10.8C521.9,341.879,542.86,417.049,542.82,417.229z"/>
										<g>
											<path style="fill:#FDAD91;" d="M527.9,439.899c1.52,5.3,25.23,6.56,29.24,2.98c2.08-1.86,2.47-9.12,2.38-15.67
												c-0.09-6.1-0.61-11.6-0.61-11.6l-16.17,1.3c0,0-4.05,4.38-7.92,9.43C530.89,431.449,527.14,437.239,527.9,439.899z"/>
											<path style="fill:#0C1B3C;" d="M527.9,439.899c1.52,5.3,25.23,6.56,29.24,2.98c2.08-1.86,2.47-9.12,2.38-15.67
												c-2.66,4.99-7.77,8.26-12.9,8c-4.97-0.26-9.64-3.8-11.8-8.87C530.89,431.449,527.14,437.239,527.9,439.899z"/>
										</g>
									</g>
									<path style="fill:#346E94;" d="M504.81,320.579c4.48-0.68,9.63-1.07,15.55-1.07c11.7,0,19.72,1.99,25.12,5.04
										c7.34,4.14,9.88,10.23,10.33,15.94c0.34,4.27-0.48,8.33-1.33,11.19c19.72-2.66,41.27-0.18,57.4-11.32
										c21.62-16.72,12.14-42.21,1.97-62.85c-17.11,1.3-34.24,2.59-51.35,3.89c-5.42,8.44-7.8,17.04-7.45,25.23
										c-15.45,4.2-26.33,7.77-44.37,12.34C508.64,319.489,506.67,320.019,504.81,320.579z"/>
								</g>
								<path style="fill:#318691;" d="M553.22,237.819l-5.39-12.13c0,0-6.31,3.57-9.86,10.15c-4.45,8.26-16.71,45.94-16.71,45.94
									l16.37,14.18l17.12-36.84L553.22,237.819z"/>
								<path style="fill:#40989E;" d="M597.92,225.349c-2.08-1.08-8.37-4.24-13.27-6.47c-4.92,5.2-19.39,19.99-24.58,19.75
									c-5.13-0.24-8.5-10.79-9.56-14.64c-3.48,2.14-10.39,6.35-8.91,11.12c5.14,16.62,16.34,42.12,14.48,69.11
									c1.14,1.14,59.5,3.91,67.47-3.14C623.97,294.969,617.92,235.749,597.92,225.349z"/>
								<g>
									<g>
										<g>
											<path style="fill:#FDAD91;" d="M584.65,218.879c-2.12,2.23-6.02,6.26-10.17,10.08c-5.49,5.07-11.46,9.81-14.41,9.68
												c-3.15-0.15-5.63-4.16-7.32-8.13c-1.07-2.52-1.83-5.01-2.23-6.51c2.16-1.32,4.07-2.06,4.31-2.14
												c-0.02-0.12-0.06-0.24-0.07-0.36c-0.96-4.39-2.33-6.76-4.46-11.4c6.62-4.34,11.2-7.86,17.42-11.34
												c-0.02,2.08,0.78,4.47,2.03,6.83c2.45,4.68,6.64,9.23,9.66,10.84C580.4,216.949,582.36,217.839,584.65,218.879z"/>
											<path style="fill:#E57873;" d="M569.75,205.579c-2.25,4.42-7.54,13.18-15,15.91c-0.96-4.38-2.32-6.76-4.45-11.39
												c6.62-4.35,11.2-7.87,17.42-11.35C567.71,200.819,568.51,203.219,569.75,205.579z"/>
										</g>
										<path style="fill:#D2F7F6;" d="M574.47,228.959c-5.49,5.07-11.46,9.81-14.41,9.68c-3.15-0.15-5.63-4.16-7.32-8.13
											C556.63,233.299,564.4,232.589,574.47,228.959z"/>
									</g>
									<g>
										<path style="fill:#4D4E54;" d="M532.47,198.719c0.11,0.72,0.72,1.23,1.35,1.13"/>
										<path style="fill:#E57873;" d="M521.287,198.074c0.132-3.051,3.307-5.392,7.093-5.229c3.785,0.164,6.747,2.77,6.615,5.821
											c-0.132,3.051-3.307,5.392-7.093,5.229C524.117,203.731,521.155,201.125,521.287,198.074z"/>
										<g>
											<path style="fill:#FDAD91;" d="M571.92,189.779c-0.43-15.16-11.07-27.19-23.77-26.87c-12.7,0.32-24.52,13.04-22.21,28.02
												c3.12,20.19,13.17,30.1,22.89,28.11C561.14,216.519,572.35,204.929,571.92,189.779z"/>
											<path style="fill:#E57873;" d="M569.3,188.239c-4.14-0.05-8.22-2.12-10.7-5.43c0.78,2.26,0.19,4.93-1.46,6.66
												c-0.63,0.66-1.52,1.2-2.41,0.99c-0.68-0.16-1.18-0.74-1.58-1.32c-1.4-2.04-2.09-4.55-1.95-7.02
												c-1.14,4.4-4.56,8.14-8.84,9.67c-1.16,0.42-2.57,0.64-3.54-0.13c-0.8-0.63-1.03-1.78-0.83-2.78s0.74-1.89,1.28-2.75
												c-3.67,3.53-8.69,5.61-13.78,5.7c0.61-7.1,3.79-14.07,9.22-18.67c5.43-4.6,13.18-6.56,19.99-4.47
												c6.81,2.09,12.26,8.46,12.66,15.57"/>
										</g>
										<g>
											<path style="fill:none;stroke:#0C1B3C;stroke-linecap:round;stroke-miterlimit:10;" d="M554.09,191.869
												c-2.9-2.13-6.45-1.81-8.61-0.43"/>
											<path style="fill:none;stroke:#0C1B3C;stroke-linecap:round;stroke-miterlimit:10;" d="M536.03,193.229
												c-2.91-1.57-6.2-0.34-7.39,1.62"/>
											<path style="fill:none;stroke:#91293F;stroke-linecap:round;stroke-miterlimit:10;" d="M539.34,199.719
												c0.23,2.53,0.76,5.03,1.57,7.44"/>
											<path style="fill:none;stroke:#91293F;stroke-linecap:round;stroke-miterlimit:10;" d="M542.65,210.929
												c3.14,0.47,5.86-0.78,7.21-3.49"/>
											<path style="fill:#0F1D3D;" d="M549.335,196.398c0.633-0.098,1.267,0.606,1.417,1.572
												c0.149,0.966-0.243,1.829-0.876,1.926c-0.633,0.098-1.268-0.606-1.417-1.572
												C548.31,197.358,548.702,196.496,549.335,196.398z"/>
											<path style="fill:#0F1D3D;" d="M533.085,198.909c0.633-0.098,1.267,0.606,1.417,1.572
												c0.149,0.966-0.243,1.829-0.876,1.926c-0.633,0.098-1.268-0.606-1.417-1.572
												C532.059,199.869,532.451,199.007,533.085,198.909z"/>
										</g>
										<g>
											<path style="fill:#0C1B3C;" d="M571.29,196.919c-0.81-2.39-2.03-5.11-3.56-7.91c-4.23-2.23-7.73-5.83-10.39-9.84
												c0.01,0.16,0.03,0.3,0.05,0.46c0.44,3.45-0.98,10.38-2.15,9.87c-1.92-0.82-3.49-12.79-5.24-19.18
												c1.12,3.93,1.24,8.22-0.14,12.06c-1.37,3.84-4.36,7.18-8.2,8.54c-0.51,0.17-1.12,0.3-1.54-0.02
												c-0.52-0.42-0.41-1.21-0.25-1.85c1.26-4.99,2.53-9.96,3.76-14.94c-0.99,3.85-2.22,7.65-4.9,10.46
												c-3,3.16-7.36,5.03-12.42,5.76c0.03,3.09,0.53,5.81,1.19,8.03c-1.66-2.2-2.89-4.62-3.69-7.16
												c-2.06-6.54-1.34-13.87,1.91-19.84c4.5-8.28,13.99-13.59,23.39-13.09c1.97-0.19,3.93-0.16,5.83,0.12
												c7.64,1.06,14.41,5.65,18.02,12.16C577.46,178.689,576.78,189.409,571.29,196.919z"/>
											<path style="fill:#1E3A5E;" d="M554.93,158.399c-7.88,0.69-15.56,3.53-21.45,8.77c-6.71,5.96-10.68,15.19-9.68,24.04
												c-2.06-6.54-1.34-13.87,1.91-19.84c4.5-8.28,13.99-13.59,23.39-13.09C551.07,158.089,553.03,158.129,554.93,158.399z"/>
										</g>
										<path style="fill:#FDAD91;" d="M570.467,189.928c3.333-1.789,7.208-1.053,8.655,1.643c1.447,2.696-0.083,6.331-3.416,8.12
											c-3.333,1.789-7.208,1.053-8.655-1.643C565.604,195.352,567.134,191.717,570.467,189.928z"/>
									</g>
								</g>
							</g>
						</g>
					</g>
					<g>
						<g>
							<g>
								<path style="fill:#0C1B3C;" d="M350.38,433.969c-3.74,4.5-27.73,4.17-30.37,0.13c-0.44-0.66-0.36-2.43,0.01-4.75
									c1.19-7.53,5.46-20.83,5.46-20.83l21.86,1.56c0,0,3.49,12.22,3.79,19.35C351.21,431.539,351.02,433.199,350.38,433.969z"/>
								<path style="fill:#466482;" d="M350.38,433.969c-3.74,4.5-27.73,4.17-30.37,0.13c-0.44-0.66-0.36-2.43,0.01-4.75
									c9.7,4.44,21.36,4.38,31.11,0.09C351.21,431.539,351.02,433.199,350.38,433.969z"/>
							</g>
							<g>
								<path style="fill:#0C1B3C;" d="M421.33,430.179c-2.63,2.85-40.8,2.7-43.23-1.35c-0.3-0.49-0.19-1.74,0.14-3.39
									c1.13-5.62,4.97-15.8,4.97-15.8l18.31,2.42c0,0,8.35,6.37,18.42,12.73c0.19,0.12,0.36,0.26,0.52,0.43
									C421.81,426.539,422.27,429.149,421.33,430.179z"/>
								<path style="fill:#466482;" d="M421.33,430.179c-2.63,2.85-40.8,2.7-43.23-1.35c-0.3-0.49-0.19-1.74,0.14-3.39
									c13.69,3.53,28.44,3.5,42.22-0.22C421.81,426.539,422.27,429.149,421.33,430.179z"/>
							</g>
							<g>
								<polygon style="fill:#1F3A59;" points="408.39,411.499 377.93,415.359 352.6,277.519 350.81,413.469 322.1,410.939 
									315.39,248.879 314.54,228.509 321.82,219.039 324.96,214.959 335.49,218.639 382.54,235.119 383.94,244.719 								"/>
								<path style="fill:#13274A;" d="M383.94,244.719c-22.64,3.64-45.65,5.03-68.55,4.16l-0.85-20.37l7.28-9.47
									c4.56-0.06,9.11-0.19,13.67-0.4l47.05,16.47L383.94,244.719z"/>
							</g>
						</g>
						<g>
							<g>
								<g>
									<path style="fill:#95405D;" d="M377.5,151.359c-3.37,4.33-7.07,8.57-12.14,9.68c-5.59,1.24-11.41-1.83-15.06-6.26
										c-3.64-4.39-5.56-9.94-7.4-15.37c3.93-0.85,6.66-4.48,8.15-8.17c0.33-0.85,0.64-1.7,0.9-2.59
										c0.42-1.29,0.79-2.63,1.21-3.91c0.51-1.62,1.08-3.19,1.89-4.68c2.05,1.02,4.02,1.99,5.88,2.93
										c5.13,2.58,9.67,4.91,14.21,7.26c-0.46,2.21-1.56,4.8-2.4,7.43c-0.84,2.64-1.42,5.49-0.78,8.18
										c0.03,0.19,0.09,0.37,0.15,0.56C372.92,148.899,374.94,151.079,377.5,151.359z"/>
									<path style="fill:#7D3455;" d="M372.13,146.419c-8.8-2.74-16.38-9.36-20.18-17.76c0.42-1.29,0.79-2.63,1.21-3.91
										c2.32-1.36,5.02-1.86,7.78-1.74c5.13,2.58,9.67,4.91,14.21,7.26c-0.46,2.21-1.56,4.8-2.4,7.43
										c-0.84,2.64-1.42,5.49-0.78,8.18C372.01,146.049,372.07,146.239,372.13,146.419z"/>
								</g>
								<g>
									<path style="fill:#7D3455;" d="M390.16,119.229c2.01-0.72,4.08-1.46,6.21-1.42c2.14,0.04,4.39,1.02,5.34,2.93
										c0.95,1.92,0.33,4.37-1.16,5.91c-1.49,1.53-3.69,2.23-5.83,2.27c-2.14,0.04-4.24-0.51-6.28-1.17"/>
									<path style="fill:#95405D;" d="M348.93,104.869c3.62-16.48,17.31-27.96,30.39-25.09c13.08,2.88,19.54,18.17,15.91,34.64
										c-3.62,16.48-10.47,29.82-23.54,26.94C358.62,138.499,345.31,121.349,348.93,104.869z"/>
									<g>
										<path style="fill:#1A202B;" d="M368.18,113.938c0.336-1.017,1.224-1.639,1.985-1.388c0.76,0.251,1.105,1.279,0.769,2.297
											c-0.336,1.017-1.225,1.639-1.985,1.388C368.189,115.984,367.845,114.956,368.18,113.938z"/>
										<path style="fill:#1A202B;" d="M385.021,118.21c0.336-1.017,1.224-1.639,1.985-1.388c0.76,0.251,1.105,1.279,0.769,2.297
											c-0.336,1.017-1.224,1.639-1.985,1.388C385.029,120.256,384.685,119.227,385.021,118.21z"/>
										<path style="fill:none;stroke:#0C1B3C;stroke-linecap:round;stroke-miterlimit:10;" d="M366.18,105.419
											c2.54-1.47,5.88-1.4,8.36,0.16"/>
										<path style="fill:none;stroke:#0C1B3C;stroke-linecap:round;stroke-miterlimit:10;" d="M386.2,108.069
											c2.68-0.76,5.77,0.21,7.55,2.36"/>
										<path style="fill:none;stroke:#4A1934;stroke-linecap:round;stroke-miterlimit:10;" d="M381.41,116.529
											c-0.15,3.03-0.86,6.03-2.08,8.8"/>
										<path style="fill:#4A1934;" d="M378.87,129.349c-4.14-0.91-8.11-2.6-11.5-4.57c-1.69,2.02-1.94,5.12-0.59,7.38
											c1.35,2.26,4.2,3.51,6.78,2.98C376.14,134.599,378.25,132.319,378.87,129.349z"/>
									</g>
									<g>
										<path style="fill:#5D7191;" d="M368.34,91.479c-5.66,7.08-10.71,18.79-11.63,18.92c-3.23,0.45-6.21,2.44-8.12,5.87
											c-1-8.75,0.21-17.74,3.51-25.62C358.73,91.159,368.34,91.479,368.34,91.479z"/>
										<g>
											<path style="fill:#0C1B3C;" d="M402.75,98.159c-0.53,1.23-1.45,2.28-2.55,2.98c-0.97,0.64-2.09,1.01-3.21,1
												c-15.13-4.65-30.31-7.47-45.69-8.32c-3.11-0.17-3.85-2.19-3.98-3.78c-0.1-1.61,0.38-3.25,1.13-4.67
												c0.73-1.39,1.74-2.67,3.08-3.39c1.33-0.7,3.02-0.74,4.18,0.15c-1.18-3.78,0.56-8.08,3.75-9.77
												c3.17-1.67,7.31-0.49,9.08,2.61c0.76-1.75,1.98-3.21,3.4-4.23c1.89-1.34,4.15-1.94,6.26-1.47
												c3.68,0.79,6.42,4.69,6.13,8.72c0.77-2.28,3.06-3.38,5.07-3.17c2.04,0.2,3.8,1.48,5.18,3c1.42,1.57,2.56,3.5,2.82,5.69
												c0.26,2.19-0.55,4.64-2.31,5.89c2.37-0.69,5.05-0.09,6.67,1.71C403.33,92.919,403.75,95.809,402.75,98.159z"/>
											<path style="fill:#1B3359;" d="M402.75,98.159c-0.53,1.23-1.45,2.28-2.55,2.98c1-2.35,0.88-5.14-0.49-7.29
												c-1.95-3.07-6.23-4.4-9.57-2.99c1.27-1.68,2.35-2.59,3.13-3.74c0.8-1.12,1.29-2.54,1.04-3.9
												c-0.24-1.26-1.08-2.36-2.15-3.08c-1.57-1.07-3.62-1.36-5.44-0.79c-1.8,0.55-3.31,1.99-3.99,3.75
												c-0.55-2.98-1.03-5.42-2.19-7.54c-1.14-2.11-3.02-3.92-5.34-4.62c-1.06-0.33-2.2-0.38-3.27-0.18
												c1.89-1.34,4.15-1.94,6.26-1.47c3.68,0.79,6.42,4.69,6.13,8.72c0.77-2.28,3.06-3.38,5.07-3.17c2.04,0.2,3.8,1.48,5.18,3
												c1.42,1.57,2.56,3.5,2.82,5.69c0.26,2.19-0.55,4.64-2.31,5.89c2.37-0.69,5.05-0.09,6.67,1.71
												C403.33,92.919,403.75,95.809,402.75,98.159z"/>
										</g>
									</g>
									<path style="fill:#95405D;" d="M357.83,112.189c-1.56-2.25-3.72-4.16-6.31-5.03c-2.6-0.87-5.64-0.61-7.83,1.04
										c-2.19,1.64-3.3,4.74-2.31,7.29c0.96,2.46,3.57,3.97,6.19,4.34c2.62,0.38,5.27-0.17,7.85-0.72"/>
								</g>
							</g>
							<g>
								<g>
									<path style="fill:#95405D;" d="M436.85,184.929c0,0-24.37,48.39-32.4,45.8c-3.61-1.16-8.07-6.18-12.29-12.14
										c-4.74-6.67-9.21-14.53-11.88-19.48c-1.62-2.98-2.58-4.91-2.58-4.91l22.65-11.62l1.04-0.53l6.59,14.99l0.54,1.22l21.2-27.1
										L436.85,184.929z"/>
									<path style="fill:#7D3455;" d="M407.98,197.049l-15.82,21.55c-4.74-6.67-9.21-14.53-11.88-19.48l20.07-16.53l1.04-0.53
										L407.98,197.049z"/>
								</g>
								<path style="fill:#F79234;" d="M374.52,166.419l9.56-13.72c0,0,8.25,4.24,12.53,12.56c5.43,10.55,12.29,29.17,12.29,29.17
									l-26.95,22.72L374.52,166.419z"/>
								<g>
									<g>
										<g>
											
												<rect x="426.019" y="152.445" transform="matrix(0.2348 -0.972 0.972 0.2348 179.1114 577.2976)" style="fill:#FAC98F;" width="60.413" height="44.882"/>
										</g>
										<g>
											
												<rect x="432.255" y="156.33" transform="matrix(0.2348 -0.972 0.972 0.2348 181.2897 577.4742)" style="fill:#F2AC79;" width="50.343" height="34.522"/>
										</g>
										<g>
											<g>
												<g>
													
														<rect x="431.685" y="155.01" transform="matrix(0.2348 -0.972 0.972 0.2348 182.1369 575.9096)" style="fill:#FFFFFF;" width="50.343" height="34.522"/>
												</g>
												<g>
													<g>
														<g>
															
																<rect x="463.95" y="145.075" transform="matrix(0.2348 -0.972 0.972 0.2348 203.8926 570.7338)" style="fill:#28598A;" width="0.99" height="21.581"/>
															
																<rect x="463.35" y="147.565" transform="matrix(0.2348 -0.972 0.972 0.2348 201.0107 572.0549)" style="fill:#28598A;" width="0.99" height="21.581"/>
															
																<rect x="462.711" y="150.216" transform="matrix(0.2348 -0.972 0.972 0.2348 197.9452 573.4618)" style="fill:#28598A;" width="0.99" height="21.581"/>
														</g>
														
															<rect x="445.31" y="152.706" transform="matrix(0.2348 -0.972 0.972 0.2348 192.759 554.3063)" style="fill:none;stroke:#28598A;stroke-width:0.5;stroke-miterlimit:10;" width="6.28" height="4.03"/>
													</g>
													<g>
														<g>
															
																<rect x="461.61" y="154.797" transform="matrix(0.2348 -0.972 0.972 0.2348 192.6494 575.8974)" style="fill:#28598A;" width="0.99" height="21.581"/>
															
																<rect x="461" y="157.285" transform="matrix(0.2348 -0.972 0.972 0.2348 189.7642 577.2084)" style="fill:#28598A;" width="0.99" height="21.581"/>
															
																<rect x="460.361" y="159.936" transform="matrix(0.2348 -0.972 0.972 0.2348 186.6986 578.6152)" style="fill:#28598A;" width="0.99" height="21.581"/>
														</g>
														
															<rect x="442.96" y="162.426" transform="matrix(0.2348 -0.972 0.972 0.2348 181.522 559.4661)" style="fill:none;stroke:#28598A;stroke-width:0.5;stroke-miterlimit:10;" width="6.28" height="4.03"/>
													</g>
													<g>
														<g>
															
																<rect x="459.281" y="163.806" transform="matrix(0.2348 -0.972 0.972 0.2348 182.1095 580.5269)" style="fill:#28598A;" width="0.99" height="21.581"/>
															
																<rect x="458.68" y="166.297" transform="matrix(0.2348 -0.972 0.972 0.2348 179.2294 581.8492)" style="fill:#28598A;" width="0.99" height="21.581"/>
															
																<rect x="458.039" y="168.957" transform="matrix(0.2348 -0.972 0.972 0.2348 176.1527 583.2611)" style="fill:#28598A;" width="0.99" height="21.581"/>
														</g>
														
															<rect x="440.63" y="171.435" transform="matrix(0.2348 -0.972 0.972 0.2348 170.9703 564.0876)" style="fill:none;stroke:#28598A;stroke-width:0.5;stroke-miterlimit:10;" width="6.28" height="4.03"/>
													</g>
													<g>
														<g>
															
																<rect x="456.958" y="172.828" transform="matrix(0.2348 -0.972 0.972 0.2348 171.5634 585.1729)" style="fill:#28598A;" width="0.99" height="21.581"/>
															
																<rect x="456.358" y="175.318" transform="matrix(0.2348 -0.972 0.972 0.2348 168.6833 586.4951)" style="fill:#28598A;" width="0.99" height="21.581"/>
															
																<rect x="455.709" y="177.966" transform="matrix(0.2348 -0.972 0.972 0.2348 165.6127 587.8907)" style="fill:#28598A;" width="0.99" height="21.581"/>
														</g>
														
															<rect x="438.308" y="180.457" transform="matrix(0.2348 -0.972 0.972 0.2348 160.4266 568.735)" style="fill:none;stroke:#28598A;stroke-width:0.5;stroke-miterlimit:10;" width="6.28" height="4.03"/>
													</g>
												</g>
											</g>
											<g>
												<path style="fill:#0C1B3C;" d="M452.45,144.669l0.56-2.3l20.97,5.07l-0.56,2.3c-0.33,1.35-1.69,2.19-3.04,1.86
													l-16.07-3.88C452.96,147.379,452.13,146.019,452.45,144.669z"/>
												<g>
													<circle style="fill:#466E9C;" cx="455.74" cy="145.539" r="1.06"/>
													<circle style="fill:#466E9C;" cx="470.11" cy="149.009" r="1.06"/>
												</g>
											</g>
										</g>
									</g>
									<path style="fill:#95405D;" d="M428.98,163.309c2.77-4.31,5.99-7.6,8.09-12.29c0.36-0.81,0.96-1.78,1.82-1.61
										c0.67,0.13,0.99,0.91,1.13,1.59c0.79,3.78-0.36,7.92-2.45,10.76c0.47,3.54-0.59,8.1-3.31,10.03
										c-0.93,3.4-1.47,5.19-2.38,8.37c-2.32-2.32-4.11-4.52-4.76-6.87C426.26,170.129,427.12,166.209,428.98,163.309z"/>
								</g>
							</g>
							<g>
								<g>
									<path style="fill:#95405D;" d="M285.11,116.129c-1.38-7.82-2.75-15.64-4.13-23.47c-0.25-1.44-0.93-3.18-2.49-2.91
										c-0.81,0.14-1.55,0.83-1.94,1.59c-0.4,0.76-0.52,1.57-0.63,2.37c-0.5,3.71-0.75,7.4-0.22,11.44
										c-3.8-4.54-7.85-8.88-12.12-12.98c-1.22-1.17-2.56-2.37-4.37-2.58c-0.83-0.1-1.89,0.12-2.41,0.9
										c-0.63,0.95-0.02,1.98,0.59,2.72c2.66,3.2,5.43,6.31,8.76,9.58c-4.46-2.19-8.93-4.38-13.39-6.56
										c-0.71-0.35-1.45-0.7-2.31-0.69c-0.86,0.01-1.87,0.51-2.24,1.34c-0.33,0.74-0.07,1.49,0.3,2.07
										c0.8,1.26,2.08,2.1,3.34,2.92c3.24,2.11,6.48,4.22,9.04,6.15c-3.77-1.23-7.6-2.35-11.48-3.37
										c-0.61-0.16-1.24-0.32-1.91-0.18c-0.67,0.13-1.38,0.65-1.53,1.3c-0.19,0.85,0.59,1.41,1.28,1.77
										c4.21,2.22,8.42,4.45,12.71,6.46c-3.5-0.86-7-1.73-10.5-2.59c-1.2-0.3-2.94-0.33-3.56,0.91c-0.59,1.17,0.54,2.12,1.55,2.64
										c5.89,3.03,11.77,6.06,17.66,9.09c4.21,2.17,8.83,4.39,14.05,3.35"/>
									<g>
										<path style="fill:#95405D;" d="M322.57,179.549c-2.48,1.88-7.41,4.28-13.21,6.57c-5.06,2-10.79,3.93-16.14,5.37
											c-8.68,2.34-16.38,3.4-18.65,1.47c-9.4-8.03-3.38-68.37-3.38-68.37l13.93-8.54l4.46,48.04c0,0,1.06-0.62,2.83-1.65
											c4.05-2.33,11.81-6.79,19.28-10.87c4.81-2.61,9.48-5.07,12.97-6.71C324.66,144.859,330.76,173.349,322.57,179.549z"/>
										<path style="fill:#7D3455;" d="M311.68,151.579l-2.32,34.54c-5.06,2-10.79,3.93-16.14,5.37l-0.81-29.05
											C296.45,160.109,304.21,155.649,311.68,151.579z"/>
									</g>
								</g>
								<path style="fill:#FEAC40;" d="M333.1,141.759c-4.76-0.96-40.6,18.66-40.6,18.66l7.44,36.76c0,0,25.26-6.01,26.89-9.45
									C328.48,184.289,335.96,142.339,333.1,141.759z"/>
							</g>
							<g>
								<path style="fill:#FEAC40;" d="M345.04,138.199c0,0,6.93,19.27,15.95,21.59c11.23,2.89,11.34-13.72,11.34-13.72
									s16.53,7.96,19.07,12.84c1.95,3.75-3.78,44.38-6.61,66.78c-1.21,9.58-0.52,16.17-0.52,16.17l-70.8-3.22
									c0,0-0.95-75.75,8.32-89.87C326.95,140.909,345.04,138.199,345.04,138.199z"/>
								<path style="fill:#FFD991;" d="M372.15,145.349c-0.46,2.84-0.77,5.08-1.87,7.74s-2.98,4.61-5,6.87
									c4.99-0.82,10.61,1.57,14.01,5.3c1.92-5.78,1.23-12.01-1.59-17.28C375.98,146.989,374.22,146.089,372.15,145.349z"/>
								<path style="fill:#FFD991;" d="M360.05,159.589c-5.74-6.6-10.28-14.25-13.62-22.34c-2.47-0.19-4.63-0.04-6.72,1.59
									c-1.79,7.92-0.47,16.5,1.3,24.21C347.08,158.809,352.84,157.889,360.05,159.589z"/>
								
									<rect x="377.116" y="169.827" transform="matrix(0.0993 -0.9951 0.9951 0.0993 165.5518 534.7987)" style="fill:#FFD991;" width="2.14" height="12.251"/>
							</g>
						</g>
					</g>
					<g>
						<g>
							<g>
								<polygon style="fill:#1F3A59;" points="143.61,239.779 132.01,236.029 127.81,237.439 136.48,288.969 153.63,288.469 
																	"/>
								<polygon style="fill:#CCCFD4;" points="208.01,235.749 132.01,235.949 143.28,300.809 217.96,302.139 								"/>
							</g>
							<g>
								<g>
									<g>
										<rect x="181.36" y="345.659" style="fill:#192C52;" width="7.04" height="81.74"/>
										<rect x="152.18" y="336.609" style="fill:#192C52;" width="7.04" height="81.74"/>
									</g>
									<rect x="225.16" y="340.749" style="fill:#192C52;" width="7.04" height="81.74"/>
								</g>
								<polygon style="fill:#192C52;" points="148.16,299.669 155.18,334.589 164.55,333.029 157.72,297.329 								"/>
								<g>
									<polygon style="fill:#1F3A59;" points="156.96,333.869 148.44,332.219 148.44,337.549 176.77,350.829 230.66,349.769 
										234.37,337.169 									"/>
									<polygon style="fill:#CCCFD4;" points="187.94,330.669 148.04,332.219 177.08,343.299 243.57,342.199 									"/>
								</g>
							</g>
						</g>
						<g>
							<g>
								<g>
									<g>
										<g>
											<path style="fill:#E57772;" d="M296.99,432.559c-2.94,4.94-37.76,1.98-43.71-0.93c-1.49-0.73-0.99-5.47-0.02-10.32
												c1.12-5.6,2.86-11.36,2.86-11.36l16.44,1.15c0,0,7.99,4.89,14.87,10.14C293.27,425.669,298.3,430.369,296.99,432.559z"/>
											<path style="fill:#0C1B3C;" d="M296.99,432.559c-2.94,4.94-37.76,1.98-43.71-0.93c-1.49-0.73-0.99-5.47-0.02-10.32
												c1.34-1.53,3.36-2.67,5.95-3.08c8.78,3.93,18.81,4.93,28.22,3C293.27,425.669,298.3,430.369,296.99,432.559z"/>
										</g>
										<path style="fill:#E57772;" d="M273,325.029c0,26.67-0.16,44.97-0.16,88.17c-1.72,0.06-12.17,0.95-16.79,0.24
											c-8.14-15.93-4.62-30.01-10.81-46.51c-4.92-13.09-13.72-26.27-27.19-33.86c-3.51-1.99-7.33-3.58-11.48-4.71
											c-4.13-1.11-8.96-2.01-11.05-5.11c-4.37-6.46,7.65-13.96,12.26-26.94c3.99,1.01,7.63,1.97,11.03,2.9
											C234.24,303.409,273,312.079,273,325.029z"/>
									</g>
									<g>
										<path style="fill:#FDAD91;" d="M261.09,413.199c-6.46,0.51-11.19,2.04-19-0.65c-11.38-38.54-17.11-42.18-17.11-67.37
											c-1.85-0.37-3.72-0.66-5.6-0.92c-19.72-2.66-41.27-0.18-57.4-11.32c-21.62-16.72-12.14-42.21-1.97-62.85
											c17.11,1.3,34.24,2.59,51.35,3.89c5.42,8.44,7.8,17.04,7.45,25.23c-0.19,4.6-1.23,9.06-3.07,13.31
											c3.93,2.37,8.27,3.65,12.63,4.61c9.68,2.13,15.57,1.21,21.59,8.53C255.18,366.349,261.04,413.019,261.09,413.199z"/>
										<g>
											<path style="fill:#FDAD91;" d="M277.24,435.479c-1.74,5.3-28.83,6.56-33.42,2.98c-2.37-1.86-2.83-9.12-2.72-15.67
												c0.1-6.1,0.69-11.6,0.69-11.6l18.48,1.3c0,0,4.63,4.38,9.06,9.43C273.82,427.019,278.11,432.819,277.24,435.479z"/>
											<path style="fill:#0C1B3C;" d="M277.24,435.479c-1.74,5.3-28.83,6.56-33.42,2.98c-2.37-1.86-2.83-9.12-2.72-15.67
												c3.05,4.99,8.88,8.26,14.74,8c5.68-0.26,11.02-3.8,13.49-8.87C273.82,427.019,278.11,432.819,277.24,435.479z"/>
										</g>
									</g>
								</g>
								<path style="fill:#BA2F4A;" d="M269.03,313.149c-4.48-0.68-9.63-1.07-15.55-1.07c-11.7,0-19.72,1.99-25.12,5.04
									c-7.34,4.14-9.88,10.23-10.33,15.94c-0.34,4.27,0.48,8.33,1.33,11.19c-19.72-2.66-41.27-0.18-57.4-11.32
									c-21.62-16.72-12.14-42.21-1.97-62.85c17.11,1.3,34.24,2.59,51.35,3.89c5.42,8.44,7.8,17.04,7.45,25.23
									c15.45,4.2,26.33,7.77,44.37,12.34C265.2,312.059,267.17,312.589,269.03,313.149z"/>
							</g>
							<g>
								<path style="fill:#0C1B3C;" d="M198.17,222.499c-5.4,1.65-10.88,3.24-16.54,3.74c-5.67,0.49-11.6-0.19-16.51-2.84
									c-4.9-2.65-8.6-7.49-8.66-12.72c-0.07-5.23,4.06-10.49,9.68-11.31c2.84-0.41,5.04-3.12,4.67-5.74
									c-0.51-3.56,0.98-7.31,3.87-9.73c2.88-2.42,7.08-3.45,11.7-2.06c3.96-0.81,7.98-1.62,12.03-1.39
									c4.05,0.24,8.19,1.66,10.69,4.6c2.49,2.94,2.83,7.54,0.08,10.28c-1.94,1.93,0.18,5.23,2.63,6.54
									c8.03,4.3,4.53,10.49,3.2,12.82C210.79,222.089,203.33,220.929,198.17,222.499z"/>
								<g>
									<path style="fill:#FDAD91;" d="M199.7,229.789c3.82-4.04,10.83-13.8,7.37-23.26c-0.95-0.54-1.86-1.06-2.69-1.54
										c-0.77-0.46-1.34-1.1-1.68-1.85c-0.23-0.55-0.31-1.13-0.25-1.74c0.54-5.06,1.01-7.88,2.79-13.02
										c-8.44-1.9-16.4-4.17-20.97-7.99c-0.56,2.36-1.22,6.96-2.63,11.53c-1.5,4.84-3.84,9.63-7.81,11.68
										C185.12,222.909,198.96,230.579,199.7,229.789z"/>
									<path style="fill:#346E93;" d="M155.63,213.349c-5.13,6.71-8.09,57-5.58,70.76c16.9,7.88,41.39,6.85,60.06,2.92
										c-0.48-9.67,2.65-26.25,5.25-33.23c3.93-12.94,6.58-18.76,9.78-36.41c-5.78-3.93-12.73-7.82-18.08-10.85
										c-3.08,11.34-7.89,13.86-9.34,13.76c-1.25-0.09-8.87-0.54-23.89-16.67C173.53,203.779,158.38,209.749,155.63,213.349z"/>
									<path style="fill:#E57873;" d="M202.45,201.409c-0.06,0.6,0.02,1.19,0.25,1.74c-5,6.05-16.16-1.86-21.06-11.21
										c1.41-4.57,2.07-9.18,2.63-11.53c4.57,3.82,12.53,6.09,20.97,7.99C203.47,193.539,202.99,196.349,202.45,201.409z"/>
								</g>
								<g>
									<path style="fill:#E57873;" d="M218.252,171.634c4.204-2.127,8.972-1.163,10.65,2.154c1.678,3.317-0.369,7.729-4.573,9.856
										c-4.204,2.127-8.972,1.163-10.65-2.154C212.001,178.174,214.049,173.761,218.252,171.634z"/>
									<path style="fill:#0C1B3C;" d="M228.14,161.889c-0.78,5.53-3.25,11.63-6.85,18.36c-1.26-5.52-2.07-12.24-3.19-18.96
										c-1.13-6.74-2.58-13.47-5.09-18.97c-0.57-1.22-1.18-2.38-1.84-3.46c1.49-0.14,2.99,0,4.42,0.4c2.24,0.6,4.34,1.76,6.06,3.3
										c2.85,2.54,4.76,6,5.9,9.64C228.48,155.219,228.65,158.439,228.14,161.889z"/>
									<g>
										<path style="fill:#FDAD91;" d="M223.92,167.599c-0.04,1.09-0.11,2.2-0.21,3.3c-1.53,17.9-9.05,30.18-20.55,30.18
											c-16.24,0-26.76-18.21-26.76-36.05c0-17.6,10.78-30.33,23.4-28.86c7.27,0.84,12.59,3.25,16.36,6.79
											c2.5,2.35,4.3,5.2,5.53,8.44c1.4,3.63,2.08,7.73,2.23,12.15c0,0.01,0.01,0.03,0.01,0.04
											C223.97,164.909,223.96,166.239,223.92,167.599z"/>
										<path style="fill:#E57873;" d="M223.92,167.599c-0.48-1.73-1.21-3.42-2.18-4.93c-9.57,5.01-20.99,6.93-31.81,5.11
											c-2.06,1.72-4.07,3.4-6.1,5.09c0.04-8.14,0.16-13.66,3.33-17.6c2.98-3.7,7.96-5.09,12.66-5.7
											c5.3-0.69,10.69-0.67,15.98,0.1c2.03,0.28,4.13,0.72,5.89,1.74c1.4,3.63,2.08,7.73,2.23,12.15c0,0.01,0.01,0.03,0.01,0.04
											C223.97,164.909,223.96,166.239,223.92,167.599z"/>
									</g>
									<path style="fill:#0C1B3C;" d="M226.26,156.579c-2.23,1.89-5.02,3.45-8.15,4.71c-8.92,3.6-20.52,4.79-29.55,4.35
										c-4.44,9.76-6.24,13.26-7.37,21.77c-4.34-4.07-7.87-11.53-8.92-17.39c-1.04-5.84-0.94-11.97,0.69-17.71
										c2.57-9.05,9.03-13.9,13.51-16.25c1.12-0.61,2.13-1.04,2.91-1.35c5.73-2.21,12.18-2.01,18.05-0.21
										c3.2,0.99,5.9,2.68,8.17,4.75c4.58,4.14,7.42,9.74,9.25,13.94C225.4,154.479,225.87,155.649,226.26,156.579z"/>
									<path style="fill:#FDAD91;" d="M172.169,176.317c1.72-3.295,6.5-4.199,10.676-2.018c4.176,2.18,6.167,6.619,4.447,9.914
										c-1.72,3.295-6.5,4.199-10.676,2.018C172.44,184.051,170.449,179.612,172.169,176.317z"/>
									<g>
										<path style="fill:none;stroke:#0C1B3C;stroke-linecap:round;stroke-miterlimit:10;" d="M193.72,172.859
											c3-1.71,5.57-2.84,9.09-0.79"/>
										<path style="fill:none;stroke:#0C1B3C;stroke-linecap:round;stroke-miterlimit:10;" d="M213.92,172.339
											c2.57-1.92,5.86-1.59,7.84,0.52"/>
										<path style="fill:none;stroke:#91293F;stroke-linecap:round;stroke-miterlimit:10;" d="M210.53,180.149
											c0.27,2.7,0.09,5.45-0.53,8.09"/>
										<path style="fill:none;stroke:#91293F;stroke-linecap:round;stroke-miterlimit:10;" d="M208.12,192.099
											c-4.18,0.61-7.03-0.67-9.29-3.73"/>
										<path style="fill:#0F1D3D;" d="M199.47,178.619c0.685,0,1.24,0.873,1.24,1.95c0,1.077-0.555,1.95-1.24,1.95
											s-1.24-0.873-1.24-1.95C198.23,179.492,198.785,178.619,199.47,178.619z"/>
										<path style="fill:#0F1D3D;" d="M216.13,178.619c0.685,0,1.24,0.873,1.24,1.95c0,1.077-0.555,1.95-1.24,1.95
											c-0.685,0-1.24-0.873-1.24-1.95C214.89,179.492,215.445,178.619,216.13,178.619z"/>
									</g>
									<path style="fill:#1E3A5E;" d="M228.14,161.889c-0.37-1.96-0.92-3.86-1.7-5.69c-0.44-1.04-0.98-2.04-1.6-3.01
										c-2.04-3.2-5.01-5.84-8.59-7.01c-1.02-1.43-2.1-2.72-3.23-3.87c-4.07-4.14-8.85-6.51-13.91-7.33
										c-4.21-0.68-8.59-0.3-12.64,1.08c1.12-0.61,2.13-1.04,2.91-1.35c5.73-2.21,12.18-2.01,18.05-0.21
										c3.2,0.99,5.9,2.68,8.17,4.75c2.24,0.6,4.34,1.76,6.06,3.3c2.85,2.54,4.76,6,5.9,9.64
										C228.48,155.219,228.65,158.439,228.14,161.889z"/>
								</g>
								<g>
									<g>
										<path style="fill:#FEAC40;" d="M186.34,259.189c-0.03,1.41-0.06,2.84-0.12,4.25c-0.28,8.59-0.94,17.18-1.99,25.73
											c-0.54,4.44-1.26,9.06-3.88,12.68c-3.37,4.65-9.23,6.73-14.83,7.98c-6.75,1.48-13.7,2.12-21.08,1.46
											c-1.2-0.1-2.41-0.24-3.64-0.42c-0.69-0.1-1.38-0.21-2.08-0.33c0.13-0.37,0.27-0.73,0.39-1.1c0.24-0.67,0.47-1.34,0.7-2.02
											c6.1-17.86,8.68-34.93,7.89-54.02c-0.38-9.04-0.11-17.22,0.71-26.31c0.02-0.28,0.05-0.54,0.08-0.81
											c0.03-0.21,0.06-0.43,0.09-0.63c1.81-12.59,11.9-18.1,27.52-23.62c6.28,4.53,7.89,13.06,8.7,20.77
											C186.07,234.889,186.58,247.039,186.34,259.189z"/>
									</g>
									<path style="fill:#FFD991;" d="M186.22,240.009c0.79-7.77,0.29-16.99-1.47-24.61c-0.62-2.68-1.4-5.34-2.72-7.75
										c-1.32-2.41-3.23-4.55-5.51-6.06c-2.71,0.54-5.34,1.46-7.67,3.08c-0.21,4.06,1.98,13.37,2.72,14.91
										c0.89,1.83,6.49,4.05,11.01,7.74c-1.84,2.19-4.86,5.8-4.91,7.01C177.63,235.569,182.63,237.229,186.22,240.009z"/>
								</g>
								<g>
									<g>
										<path style="fill:#F79234;" d="M225.14,217.429c4.35,3.87,5.38,53.41,8.72,56.39c1.78,1.59,22.76,12.28,34.39,17.98
											c-4.01,2.54-7.59,5.75-10.58,9.49c-13.39-2.21-33.46-7.81-38.3-11.42c-6.05-4.51-6.15-32.47-7.82-49.11
											C215.4,233.319,216.87,224.959,225.14,217.429z"/>
										<path style="fill:#FEAC40;" d="M223.45,298.509c-4.49,1.83-4.77,2.01-8.87-0.57c-3.68-2.32-6.56-4.83-6.56-12.44
											c0-25.48,4.2-55.89-3.26-80.28c6.78,3.78,13.12,6.48,19.06,10.86c1.79,1.32,2.26,3.54,2.26,5.77
											C226.08,264.609,224.94,271.799,223.45,298.509z"/>
									</g>
									<path style="fill:#FFD991;" d="M208.86,240.009c-0.15-11.42-1.79-24.31-4.46-35.21c3.49,1.4,7.01,2.85,10.47,5
										c3.06,4.39,6.98,12.36,6.54,14.15c-0.41,1.65-5.69,3.65-9.67,5.76c2.65,1.77,4.75,3.81,4.69,4.83
										C216.33,235.909,213.65,237.169,208.86,240.009z"/>
								</g>
							</g>
						</g>
					</g>
				</g>
				<g>
					<g>
						<g>
							<rect x="603.86" y="323.079" style="fill:#390545;" width="9.24" height="129.78"/>
							<rect x="205.21" y="323.079" style="fill:#390545;" width="9.24" height="129.78"/>
						</g>
						<g>
							<rect x="477.01" y="297.289" style="fill:#390545;" width="8.72" height="130.12"/>
							<rect x="114.84" y="297.289" style="fill:#390545;" width="9.24" height="127.86"/>
						</g>
					</g>
					<g>
						<g>
							<polygon style="fill:#4F0946;" points="92.25,287.309 92.22,296.209 192.97,327.909 643.23,326.459 643.52,318.899 							
								"/>
							<polygon style="fill:#FAC98F;" points="192.58,318.899 92.25,287.279 534.14,287.279 643.52,318.899 							"/>
						</g>
						<g>
							<g>
								<g>
									<g>
										<path style="fill:#FDAD91;" d="M214.98,271.969c-0.08,0.64-0.44,1.29-1.03,1.55c-0.68,0.3-1.51,0.02-2.07-0.48
											c-0.56-0.49-0.92-1.17-1.3-1.82c-1.43-2.46-3.31-4.67-5.79-6.62c2.08,2.95,2.85,6.61,3.48,10.16
											c0.15,0.78,0.29,1.61,0.04,2.37c-0.24,0.76-0.98,1.42-1.77,1.3c-0.8-0.14-1.27-0.98-1.6-1.72
											c-1.19-2.58-2.37-5.16-3.29-8.19c0.73,3.01,1.34,6.05,1.83,9.11c0.15,0.99,0.27,2.08-0.29,2.91
											c-0.4,0.56-1.09,0.91-1.78,0.88c-0.68-0.04-1.34-0.44-1.79-1.16c-0.05,0.7-0.1,1.42-0.43,2.05c-0.33,0.61-1,1.11-1.69,1
											c-0.74-0.12-1.22-0.85-1.55-1.52c-0.78-1.59-1.34-3.28-1.14-4.68c-1.61,1.54-3.57,2.72-5.68,3.44
											c-0.96,0.32-1.94,0.55-2.94,0.67c-3.21,0.42-6.56-0.23-8.92-1.89c-0.55-3.3-0.57-6.69-0.32-9.6c1.72-1,3.43-2,5.16-3.01
											c3.63-2.11,7.31-4.23,11.08-6.41c5.51-2.15,11.98-1.62,17.18,1.81c2,2.28,3.49,5.01,4.34,7.93
											C214.91,270.669,215.06,271.319,214.98,271.969z"/>
										<path style="fill:#E57873;" d="M189.15,280.539c-0.96,0.32-1.94,0.55-2.94,0.67c-3.21,0.42-6.56-0.23-8.92-1.89
											c-0.55-3.3-0.57-6.69-0.32-9.6c1.72-1,3.43-2,5.16-3.01C183.95,271.559,186.32,276.209,189.15,280.539z"/>
									</g>
									<path style="fill:#FCBC5B;" d="M164.77,207.299c-1.36-1.08-15.29,6.11-17.93,21.32c-1.63,9.43-3.77,47.2,0.62,53.67
										s34.75,2.02,34.75,2.02l-0.99-17.1c0,0-15.31-2.16-15.46-3.09c-0.15-0.93,2.86-15.71,3.71-29.43
										C170.17,223.199,167.96,209.829,164.77,207.299z"/>
								</g>
								<g>
									<g>
										<path style="fill:#0C1A3B;" d="M273.19,293.419c0,1.32-1.07,2.39-2.39,2.39h-67.42c-1.58,0-3.15-0.25-4.69-0.73
											l-22.45-7.09c-0.95-0.3-1.64-1.39-1.69-2.66l-0.03-0.88l18.07,2.86l-0.02,0.14h54.14l26.48,1.19L273.19,293.419z"/>
										<polygon style="fill:#CCCFD4;" points="201.01,290.869 174.53,284.439 246.71,284.439 273.19,290.869 										"/>
									</g>
									<g>
										<path style="fill:#1F3A59;" d="M282.22,245.709L282.22,245.709c0.74,0.87,1.06,2.03,0.87,3.17l-7.05,42.95h-72.13l0,0
											c-1.36-1-2.04-2.7-1.76-4.39l6.46-39.33c0.3-1.85,1.87-3.22,3.71-3.23l67.01-0.51
											C280.44,244.359,281.5,244.849,282.22,245.709z"/>
										<path style="fill:#11244A;" d="M282.98,249.589l-6.93,42.25h-72.12l7.05-42.96c0.17-1.03,1.05-1.79,2.07-1.79h67.85
											C282.2,247.089,283.19,248.279,282.98,249.589z"/>
										<ellipse style="fill:#1F3A59;" cx="245.88" cy="270.719" rx="10.16" ry="5.32"/>
									</g>
								</g>
							</g>
							<g>
								<g>
									<g>
										<g>
											<path style="fill:#0C1A3B;" d="M542.58,303.889l-47.15-13.92c-0.78-0.23-1.32-0.95-1.32-1.77v-2.09l44.32,2.53
												l48.47,11.77v0.65c0,1.56-1.26,2.82-2.82,2.82h-41.5V303.889z"/>
											<polygon style="fill:#CCCFD4;" points="542.58,300.419 494.11,286.119 538.43,286.119 586.9,300.419 											"/>
										</g>
										<polygon style="fill:#E4E7EB;" points="536.77,287.799 567.6,297.429 542.71,297.739 										"/>
									</g>
									<g>
										<g>
											<path style="fill:#1F3A59;" d="M494.97,285.539L469,248.559c-0.37-0.49-0.48-1.01,0.07-1.68
												c0.19-0.23,1.15-1.29,1.15-1.29c0.31-0.35,0.77-0.53,1.23-0.49l44.47,6.46c1.09,0.09,2.07,0.71,2.61,1.66l25.66,44.34
												c0.46,0.8,0.27,1.81-0.45,2.39l-1.68,1.33L494.97,285.539z"/>
											<path style="fill:#11244A;" d="M490.81,285.539l-21.87-37.09c-0.24-0.37,0.06-0.85,0.49-0.81l42.85,6.19
												c1.5,0.13,2.84,0.99,3.59,2.29l26.2,45.16L490.81,285.539z"/>
										</g>
										<path style="fill:#1F3A59;" d="M495.318,271.943c0.466-2.125,4.539-3.039,9.097-2.04c4.559,0.999,7.876,3.531,7.411,5.657
											s-4.539,3.039-9.097,2.04C498.171,276.602,494.853,274.069,495.318,271.943z"/>
									</g>
								</g>
								<g>
									<path style="fill:#255E73;" d="M580.44,281.959l-4.23-1.92c0,0-5.7,7.54-0.66,17.9
										C580.2,295.429,582.31,284.819,580.44,281.959z"/>
									<g>
										<path style="fill:#FDAD91;" d="M579.44,292.219c-0.26,0.34-2.94,0.3-4.87,0.21c-0.49-0.04-0.92-0.06-1.26-0.09
											c-0.11,1.49-2.11,2.62-3.36,2.73c-1.53,0.15-3.56-0.41-4.41-1.47c-1.6,0.87-3.34,0.91-4.55,0.02
											c-1.23-0.89-1.74-2.28-1.94-3.6c-0.23-1.34-0.23-2.72-0.72-4c-0.45,3.06-1.19,6.36-2.19,9.6
											c-0.19,0.62-0.42,1.24-0.91,1.72c-0.49,0.49-1.34,0.77-2.04,0.51c-0.92-0.34-1.06-1.36-1.04-2.21
											c0.04-3.75,0.19-7.53,0.43-11.3c-1.17,2.73-2.32,5.15-3.77,7.45c-0.7,1.11-2.11,2.72-3.53,2.23
											c-0.85-0.28-0.43-1.55-0.11-2.66c0.91-3.13,1.72-4.81,3.11-8.83c0.75-2.13,1.68-4.24,4.15-5.21
											c2.92-1.15,6.38-0.72,9.47,0.04c3.11,0.75,8.98,2.26,11.02,2.89c1.02,0.32,2.04,0.58,2.98,0.81
											c2.58,0.62,4.66,0.92,4.75,1.04C581.76,283.659,580.17,291.209,579.44,292.219z"/>
										<path style="fill:#E57873;" d="M579.44,292.219c-0.26,0.34-2.94,0.3-4.87,0.21c0.62-1.04,1.11-2.13,1.43-3.28
											c0.75-2.64,0.72-5.49-0.09-8.09c2.58,0.62,4.66,0.92,4.75,1.04C581.76,283.659,580.17,291.209,579.44,292.219z"/>
									</g>
									<path style="fill:#4FABAB;" d="M591.39,224.709c4.51-2.43,15.52,4.14,18.99,18.58c3.04,12.67,9.26,44.62,2.72,52.76
										c-4.96,6.18-37.53,1.9-37.53,1.9c1.39-3.2,4.52-11.55,0.53-17.96c0,0,16.5-0.49,17.46-1.81c0.96-1.32-5.08-23.36-6.8-30.68
										C585.15,240.669,583.93,228.719,591.39,224.709z"/>
								</g>
							</g>
							<g>
								<g>
									<path style="fill:#28598A;" d="M428.51,293.419c0,1.32-1.07,2.39-2.39,2.39H358.7c-1.58,0-3.15-0.25-4.69-0.73l-22.45-7.09
										c-0.95-0.3-1.64-1.39-1.69-2.66l-0.03-0.88l18.07,2.86l-0.02,0.14h54.14l26.48,1.19L428.51,293.419z"/>
									<polygon style="fill:#C1DEE6;" points="356.32,290.869 329.84,284.439 402.03,284.439 428.51,290.869 									"/>
								</g>
								<g>
									<path style="fill:#5F9CBA;" d="M437.54,245.709L437.54,245.709c0.74,0.87,1.06,2.03,0.87,3.17l-7.05,42.95h-72.13l0,0
										c-1.36-1-2.04-2.7-1.76-4.39l6.46-39.33c0.3-1.85,1.87-3.22,3.71-3.23l67.01-0.51
										C435.75,244.359,436.81,244.849,437.54,245.709z"/>
									<path style="fill:#28598A;" d="M438.29,249.589l-6.93,42.25h-72.11l7.05-42.96c0.17-1.03,1.05-1.79,2.07-1.79h67.85
										C437.52,247.089,438.5,248.279,438.29,249.589z"/>
									<ellipse style="fill:#5F9CBA;" cx="401.19" cy="270.719" rx="10.16" ry="5.32"/>
								</g>
							</g>
						</g>
					</g>
				</g>
			</g>
		</g>
	</g>
</g>
</svg>
